<svg xmlns="http://www.w3.org/2000/svg" xmlns:xlink="http://www.w3.org/1999/xlink" viewBox="0 0 145.12 44.02"><defs><style>.cls-1{fill:none;}.cls-2{clip-path:url(#clip-path);}.cls-3{fill:#0068b2;}.cls-4{fill:#fff;}.cls-5{font-size:10.2px;fill:#12120d;font-family:HuaweiSans-Bold, Huawei Sans;font-weight:700;}.cls-6{letter-spacing:0.09em;}.cls-7{letter-spacing:0.09em;}.cls-8{letter-spacing:0.09em;}.cls-9{letter-spacing:0.03em;}</style><clipPath id="clip-path" transform="translate(0 0)"><rect class="cls-1" width="145.12" height="44.02"/></clipPath></defs><g id="Слой_2" data-name="Слой 2"><g id="Слой_1-2" data-name="Слой 1"><g class="cls-2"><path class="cls-3" d="M22,44A22,22,0,1,0,0,22,22,22,0,0,0,22,44" transform="translate(0 0)"/><path class="cls-4" d="M8.62,21a.63.63,0,0,0-.64.64v2.11a.64.64,0,1,0,1.28,0V21.61A.64.64,0,0,0,8.62,21" transform="translate(0 0)"/><path class="cls-4" d="M11.11,21a.63.63,0,0,0-.64.64v2.11a.64.64,0,0,0,1.28,0V21.61a.64.64,0,0,0-.64-.64" transform="translate(0 0)"/><path class="cls-4" d="M13.6,20.07a.64.64,0,0,0-.64.64v3.91a.64.64,0,0,0,1.28,0V20.71a.64.64,0,0,0-.64-.64" transform="translate(0 0)"/><path class="cls-4" d="M16.09,19a.64.64,0,0,0-.64.64v6a.64.64,0,0,0,.64.64.64.64,0,0,0,.64-.64v-6a.63.63,0,0,0-.64-.64" transform="translate(0 0)"/><path class="cls-4" d="M18.59,17.14a.64.64,0,0,0-.64.65v9.76a.64.64,0,0,0,.64.64.64.64,0,0,0,.64-.64V17.79a.65.65,0,0,0-.64-.65" transform="translate(0 0)"/><path class="cls-4" d="M21.08,12.71a.64.64,0,0,0-.64.64V32a.64.64,0,0,0,1.28,0V13.35a.64.64,0,0,0-.64-.64" transform="translate(0 0)"/><path class="cls-4" d="M23.57,14.3a.64.64,0,0,0-.64.64V30.4a.64.64,0,0,0,1.28,0V14.94a.64.64,0,0,0-.64-.64" transform="translate(0 0)"/><path class="cls-4" d="M26.06,17.47a.64.64,0,0,0-.64.64v9.11a.64.64,0,1,0,1.28,0V18.11a.64.64,0,0,0-.64-.64" transform="translate(0 0)"/><path class="cls-4" d="M28.56,19.38a.64.64,0,0,0-.64.64v5.29a.64.64,0,0,0,.64.64.64.64,0,0,0,.64-.64V20a.64.64,0,0,0-.64-.64" transform="translate(0 0)"/><path class="cls-4" d="M31.05,20.2a.64.64,0,0,0-.64.64V24.5a.64.64,0,0,0,1.28,0V20.84a.64.64,0,0,0-.64-.64" transform="translate(0 0)"/><path class="cls-4" d="M33.54,21a.64.64,0,0,0-.64.64v2.11a.64.64,0,0,0,1.28,0V21.61a.63.63,0,0,0-.64-.64" transform="translate(0 0)"/><path class="cls-4" d="M36,21a.63.63,0,0,0-.64.64v2.11a.64.64,0,0,0,1.28,0V21.61A.64.64,0,0,0,36,21" transform="translate(0 0)"/><path class="cls-4" d="M14.5,34.77a.74.74,0,0,1-.36-.09,1.1,1.1,0,0,1-.23-1.51l12.43-22.9a1.24,1.24,0,0,1,1-.72.73.73,0,0,1,.35.09,1.07,1.07,0,0,1,.23,1.5L15.53,34.05a1.26,1.26,0,0,1-1,.72" transform="translate(0 0)"/><path class="cls-3" d="M27.37,9.23a1.54,1.54,0,0,0-1.31.89L13.63,33A1.4,1.4,0,0,0,14,35a1.14,1.14,0,0,0,.51.13,1.56,1.56,0,0,0,1.31-.89L28.23,11.3a1.39,1.39,0,0,0-.35-1.94,1,1,0,0,0-.51-.13m0,.64a.46.46,0,0,1,.2.05c.29.16.34.64.1,1.07L15.25,33.9a1,1,0,0,1-.75.55.54.54,0,0,1-.21-.05c-.29-.16-.33-.64-.1-1.07L26.62,10.42a.93.93,0,0,1,.75-.55" transform="translate(0 0)"/></g><text class="cls-5" transform="translate(62.45 20.02) scale(1 1.08)"><tspan class="cls-6">ACTIVE</tspan><tspan class="cls-7" x="41.05" y="0" xml:space="preserve"> NO</tspan><tspan class="cls-6" x="63.23" y="0">I</tspan><tspan class="cls-8" x="67.38" y="0">S</tspan><tspan x="73.97" y="0">E</tspan></text><g class="cls-2"><text class="cls-5" transform="translate(141.93 20.02) scale(1 1.08)"> </text></g><text class="cls-5" transform="translate(62.02 32.02) scale(1 1.08)">C</text><text class="cls-5" transform="translate(69.12 32.02) scale(1 1.08)">A</text><text class="cls-5" transform="translate(76.52 32.02) scale(1 1.08)">N</text><text class="cls-5" transform="translate(84.89 32.02) scale(1 1.08)"><tspan class="cls-9">C</tspan><tspan x="6.71" y="0">E</tspan></text><text class="cls-5" transform="translate(97.66 32.02) scale(1 1.08)">L</text><text class="cls-5" transform="translate(103.35 32.02) scale(1 1.08)">L</text><text class="cls-5" transform="translate(109.45 32.02) scale(1 1.08)">A</text><text class="cls-5" transform="translate(116.15 32.02) scale(1 1.08)">T</text><text class="cls-5" transform="translate(122.56 32.02) scale(1 1.08)">I</text><text class="cls-5" transform="translate(126.12 32.02) scale(1 1.08)">O</text><text class="cls-5" transform="translate(134.63 32.02) scale(1 1.08)">N</text></g></g></svg>