<svg xmlns="http://www.w3.org/2000/svg" xmlns:xlink="http://www.w3.org/1999/xlink" viewBox="0 0 420.81 31.14"><defs><style>.cls-1{fill:none;}.cls-2{fill:#12120d;}.cls-3{clip-path:url(#clip-path);}</style><clipPath id="clip-path" transform="translate(0 0)"><rect class="cls-1" width="420.81" height="31.15"/></clipPath></defs><g id="Слой_2" data-name="Слой 2"><g id="Слой_1-2" data-name="Слой 1"><polygon class="cls-2" points="18.93 2.07 18.93 13.63 5.81 13.63 5.81 2.07 0 2.07 0 30.71 5.81 30.71 5.81 19.08 18.93 19.08 18.93 30.71 24.74 30.71 24.74 2.07 18.93 2.07"/><g class="cls-3"><path class="cls-2" d="M51.67,18.47c0,4.66-2.31,7.14-6.51,7.14s-6.55-2.56-6.55-7.34V2.09H32.8V18.47c0,8.05,4.48,12.68,12.28,12.68s12.4-4.71,12.4-12.92V2.07H51.67Z" transform="translate(0 0)"/><polygon class="cls-2" points="118.83 21.77 112.33 2.07 107.59 2.07 101.08 21.77 94.76 2.08 88.57 2.08 98.55 30.71 103.37 30.71 109.88 11.91 116.39 30.71 121.24 30.71 131.2 2.08 125.17 2.08 118.83 21.77"/><polygon class="cls-2" points="141.62 18.39 152.19 18.39 152.19 13.17 141.62 13.17 141.62 7.31 156.96 7.31 156.96 2.09 135.89 2.09 135.89 30.7 157.51 30.7 157.51 25.48 141.62 25.48 141.62 18.39"/><rect class="cls-2" x="164.44" y="2.07" width="5.73" height="28.6"/><path class="cls-2" d="M82.07,24.74l2.58,6h6.09L78.24,2.24l-.11-.17H73L60.43,30.7h5.93l2.43-5.54h0l.18-.42ZM75.51,9.32l4.14,9.59h0l.27.66H71.13l.28-.66h0Z" transform="translate(0 0)"/><polygon class="cls-2" points="187.89 2.09 204.13 2.09 203.72 5.27 191.6 5.27 191.6 14.37 202.95 14.37 202.95 17.43 191.6 17.43 191.6 30.67 187.89 30.67 187.89 2.09"/><path class="cls-2" d="M208.61,14.82c0-1.18-.05-3-.16-5.33h3.36c.08.6.15,1.31.22,2.15s.11,1.49.13,2a20.37,20.37,0,0,1,1.7-2.37,6.79,6.79,0,0,1,2-1.57,5.35,5.35,0,0,1,2.56-.6,6.9,6.9,0,0,1,1.94.26l-.52,3.21a6.22,6.22,0,0,0-1.58-.19,5.1,5.1,0,0,0-3.1,1,14,14,0,0,0-2.88,3.23V30.67h-3.63Z" transform="translate(0 0)"/><path class="cls-2" d="M240.05,20.21H225.9q0,4,1.81,5.95a6.46,6.46,0,0,0,5.1,2,14,14,0,0,0,6-1.37l.85,2.61a15.79,15.79,0,0,1-3.39,1.24,17.61,17.61,0,0,1-4.15.44,10.58,10.58,0,0,1-5.4-1.29,8.12,8.12,0,0,1-3.36-3.7,13.68,13.68,0,0,1-1.13-5.81,14.09,14.09,0,0,1,1.18-6,8.78,8.78,0,0,1,3.31-3.85,9,9,0,0,1,4.88-1.32,7.94,7.94,0,0,1,4.75,1.36A8,8,0,0,1,239.14,14a12.55,12.55,0,0,1,.91,4.83Zm-3.65-2.56a7.28,7.28,0,0,0-1.49-4.4,4.38,4.38,0,0,0-3.46-1.47,4.72,4.72,0,0,0-3.57,1.49,7.8,7.8,0,0,0-1.82,4.38Z" transform="translate(0 0)"/><path class="cls-2" d="M261.37,20.21H247.22q0,4,1.8,5.95a6.5,6.5,0,0,0,5.11,2,14,14,0,0,0,6-1.37l.85,2.61a15.51,15.51,0,0,1-3.38,1.24,17.7,17.7,0,0,1-4.16.44A10.54,10.54,0,0,1,248,29.78a8.12,8.12,0,0,1-3.36-3.7,13.53,13.53,0,0,1-1.13-5.81,14.09,14.09,0,0,1,1.18-6A8.78,8.78,0,0,1,248,10.4a9,9,0,0,1,4.88-1.32,7.94,7.94,0,0,1,4.75,1.36A8.09,8.09,0,0,1,260.46,14a12.55,12.55,0,0,1,.91,4.83Zm-3.65-2.56a7.34,7.34,0,0,0-1.49-4.4,4.39,4.39,0,0,0-3.47-1.47,4.71,4.71,0,0,0-3.56,1.49,7.8,7.8,0,0,0-1.82,4.38Z" transform="translate(0 0)"/><path class="cls-2" d="M282.19,16.49A6.88,6.88,0,0,1,284.55,19a7.38,7.38,0,0,1,.86,3.61,7.43,7.43,0,0,1-4.53,7,12.88,12.88,0,0,1-5.34,1H267V2.09h7.92q4.35,0,6.6,1.73a5.72,5.72,0,0,1,2.24,4.79,6.48,6.48,0,0,1-1.37,4.17,7.54,7.54,0,0,1-3.66,2.44,9,9,0,0,1,3.45,1.27M270.66,14h3.59a6.58,6.58,0,0,0,3.07-.69,5.08,5.08,0,0,0,2-1.86,4.91,4.91,0,0,0,.71-2.58A3.28,3.28,0,0,0,278.63,6a7.48,7.48,0,0,0-4.16-1h-3.81Zm9.42,12.34a4.78,4.78,0,0,0,1.64-3.89,4.9,4.9,0,0,0-1.84-4.12,8.44,8.44,0,0,0-5.27-1.43h-3.95v10.8h4.44a7.65,7.65,0,0,0,5-1.36" transform="translate(0 0)"/><path class="cls-2" d="M291.93,29.06q-1.6-2-1.61-6V9.49h3.57V22.84a6.41,6.41,0,0,0,1,4,3.54,3.54,0,0,0,2.93,1.25,6.51,6.51,0,0,0,3.37-1,12.33,12.33,0,0,0,2.93-2.46V9.49h3.63V25.36q0,2.22.18,5.31h-3.26c-.09-.41-.18-.93-.26-1.57s-.13-1.18-.17-1.64a16.59,16.59,0,0,1-3.4,2.62,8,8,0,0,1-4,1,5.86,5.86,0,0,1-4.87-2" transform="translate(0 0)"/><path class="cls-2" d="M327.84,30.67c-.16-.81-.28-1.69-.37-2.64a9.35,9.35,0,0,1-2.89,2.22,8.35,8.35,0,0,1-3.73.82,7.84,7.84,0,0,1-4-1.06,7.47,7.47,0,0,1-2.92-3.35,13.52,13.52,0,0,1-1.11-5.86A15.22,15.22,0,0,1,314,14.59a9,9,0,0,1,3.36-4.08,9.45,9.45,0,0,1,5.24-1.43,13.72,13.72,0,0,1,2.5.24,18.15,18.15,0,0,1,2.3.55V.4L331,0V25.32c0,1.74,0,3.52.16,5.35Zm-2.94-3.42a7.83,7.83,0,0,0,2.45-2V12.65a20,20,0,0,0-2.28-.56,12.2,12.2,0,0,0-2.2-.23,5.69,5.69,0,0,0-3.35,1,6.26,6.26,0,0,0-2.18,3,13.46,13.46,0,0,0-.77,4.84q0,3.88,1.41,5.65a4.45,4.45,0,0,0,3.64,1.77,6.81,6.81,0,0,0,3.28-.84" transform="translate(0 0)"/><path class="cls-2" d="M338.46,30.7a12.26,12.26,0,0,1-2.84-.95l.9-2.71a11.88,11.88,0,0,0,2.59.88,12.93,12.93,0,0,0,2.9.34,5.61,5.61,0,0,0,3.42-.88A2.92,2.92,0,0,0,346.59,25a2.53,2.53,0,0,0-.52-1.63,4.41,4.41,0,0,0-1.51-1.16c-.66-.34-1.63-.76-2.92-1.26a18.5,18.5,0,0,1-3.09-1.53,5.94,5.94,0,0,1-1.9-1.9,5.17,5.17,0,0,1-.68-2.71,5.57,5.57,0,0,1,.82-3,5.3,5.3,0,0,1,2.4-2A9.47,9.47,0,0,1,343,9.08a14.71,14.71,0,0,1,6.27,1.44l-.7,2.61a15.22,15.22,0,0,0-2.74-1,10.81,10.81,0,0,0-2.67-.36,4.58,4.58,0,0,0-2.76.72,2.27,2.27,0,0,0-1,1.91,2.06,2.06,0,0,0,.5,1.41,4.52,4.52,0,0,0,1.4,1c.6.3,1.52.7,2.75,1.2a28.88,28.88,0,0,1,3.2,1.54,5.89,5.89,0,0,1,2,1.88,5.46,5.46,0,0,1,.78,3,6.32,6.32,0,0,1-.94,3.45,6.21,6.21,0,0,1-2.77,2.29,10.78,10.78,0,0,1-4.41.82,15.59,15.59,0,0,1-3.45-.37" transform="translate(0 0)"/><path class="cls-2" d="M365.06,2.09h7.18c3.47,0,6.13.72,8,2.14a7.43,7.43,0,0,1,2.74,6.21,9.37,9.37,0,0,1-1.29,5A8.64,8.64,0,0,1,378,18.66a11.87,11.87,0,0,1-5.33,1.16,17,17,0,0,1-3.93-.46V30.67h-3.71Zm12.3,13.08a5.84,5.84,0,0,0,1.85-4.59,4.8,4.8,0,0,0-1.81-4.2,8.87,8.87,0,0,0-5.24-1.31h-3.39V16.48a18.9,18.9,0,0,0,3.24.34,7.77,7.77,0,0,0,5.35-1.65" transform="translate(0 0)"/><path class="cls-2" d="M387.4,14.82c0-1.18,0-3-.16-5.33h3.36c.08.6.15,1.31.21,2.15s.12,1.49.14,2a20.37,20.37,0,0,1,1.7-2.37,6.75,6.75,0,0,1,2-1.57,5.39,5.39,0,0,1,2.57-.6,6.83,6.83,0,0,1,1.93.26l-.51,3.21a6.27,6.27,0,0,0-1.58-.19,5.1,5.1,0,0,0-3.1,1A14,14,0,0,0,391,16.58V30.67H387.4Z" transform="translate(0 0)"/><path class="cls-2" d="M405.74,29.79a8.78,8.78,0,0,1-3.48-3.7,12.44,12.44,0,0,1-1.26-5.8,13.18,13.18,0,0,1,1.26-5.93,9.36,9.36,0,0,1,3.52-3.91,10.5,10.5,0,0,1,10.32,0,9.19,9.19,0,0,1,3.47,3.84,12.93,12.93,0,0,1,1.24,5.83A12.58,12.58,0,0,1,419.52,26,9,9,0,0,1,416,29.76a10.14,10.14,0,0,1-5.15,1.31,10,10,0,0,1-5.07-1.28m9.8-3.7A9.69,9.69,0,0,0,417,20.35a10.6,10.6,0,0,0-1.57-6.1A5.27,5.27,0,0,0,410.85,12a5.19,5.19,0,0,0-4.57,2.2,10.22,10.22,0,0,0-1.51,5.89,11.62,11.62,0,0,0,.73,4.35,5.65,5.65,0,0,0,5.58,3.75,5.12,5.12,0,0,0,4.46-2.08" transform="translate(0 0)"/></g></g></g></svg>