<svg xmlns="http://www.w3.org/2000/svg" viewBox="0 0 368.51 374.75"><defs><style>.cls-1{fill:#12120d;}.cls-2{fill:#c30c16;}</style></defs><g id="Слой_2" data-name="Слой 2"><g id="Ebene_1" data-name="Ebene 1"><polygon class="cls-1" points="41 336.82 12.59 336.82 12.59 311.8 0 311.8 0 373.82 12.59 373.82 12.59 348.63 41 348.63 41 373.82 53.58 373.82 53.58 311.8 41 311.8 41 336.82"/><path class="cls-1" d="M111.89,347.3c0,10.08-5,15.47-14.1,15.47s-14.18-5.54-14.18-15.9v-35H71V347.3c0,17.44,9.69,27.45,26.59,27.45,17.06,0,26.85-10.19,26.85-28v-35H111.89Z"/><polygon class="cls-1" points="257.32 354.45 243.24 311.79 232.97 311.79 218.89 354.45 205.19 311.83 191.8 311.83 213.41 373.82 223.83 373.82 237.94 333.1 252.03 373.82 262.54 373.82 284.1 311.83 271.06 311.83 257.32 354.45"/><polygon class="cls-1" points="306.66 347.13 329.55 347.13 329.55 335.83 306.66 335.83 306.66 323.14 339.89 323.14 339.89 311.84 294.25 311.84 294.25 373.78 341.08 373.78 341.08 362.49 306.66 362.49 306.66 347.13"/><rect class="cls-1" x="356.09" y="311.79" width="12.41" height="61.94"/><path class="cls-1" d="M177.73,360.87l5.57,12.91h13.18l-27.06-61.62-.25-.36h-11l-27.32,62h12.84l5.27-12h0l.38-.91ZM163.5,327.49l9,20.76h0l.6,1.44H154l.6-1.44h0Z"/><path class="cls-2" d="M158.65,221.11a1.21,1.21,0,0,0,.31-1.4h0C115.66,123.14,56.43,49.93,56.43,49.93S24.21,81.17,26.5,112.43c1.23,23.67,18.67,37.68,18.67,37.68,28.1,27.95,96.15,63.25,112,71.26a1.32,1.32,0,0,0,1.52-.26"/><path class="cls-2" d="M148.12,245a1.54,1.54,0,0,0-1.46-1v0L33.4,248c12.28,22.36,33,39.72,54.52,34.39,14.88-3.79,48.56-27.77,59.68-35.88l0,0c.85-.8.55-1.44.55-1.44"/><path class="cls-2" d="M149.83,234.63c.55-.9-.42-1.74-.42-1.74C99.67,198.63,3.24,146,3.24,146c-8.76,27.7,3.05,50,3.05,50C18.58,222.58,42,230.62,42,230.62a68.33,68.33,0,0,0,21.66,4.85c1.71.31,67.37,0,85-.06a1.53,1.53,0,0,0,1.16-.78"/><path class="cls-2" d="M157.35,0c-4.93.44-18.23,3.53-18.23,3.53-30,7.9-37.08,35.7-37.08,35.7-5.48,17.48.14,36.67.14,36.67,10,45.34,59.27,119.85,69.86,135.49.74.77,1.34.48,1.34.48a1.43,1.43,0,0,0,1.06-1.44v0C190.75,44.09,157.35,0,157.35,0"/><path class="cls-2" d="M194.86,211.84a1.32,1.32,0,0,0,1.64-.63h0c10.86-16.05,59.84-90.15,69.8-135.31,0,0,5.4-21.87.18-36.67,0,0-7.4-28.22-37.43-35.68,0,0-8.66-2.23-17.84-3.55,0,0-33.57,44.11-17.25,210.57h0a1.4,1.4,0,0,0,.87,1.27"/><path class="cls-2" d="M221.67,244.05a1.36,1.36,0,0,0-.84,2.44h0c10.84,7.94,43.71,31.41,59.56,36,0,0,29.28,10.21,54.7-34.41l-113.41-4Z"/><path class="cls-2" d="M365.24,145.8s-96.29,52.74-146.07,87h0a1.55,1.55,0,0,0-.58,1.68s.46.87,1.16.87h0c17.82,0,85.3.1,87-.21a67.1,67.1,0,0,0,19.51-4.57s24-7.79,36.44-35.63c0,0,11.13-22.68,2.53-49.19"/><path class="cls-2" d="M210.07,221.11a1.38,1.38,0,0,0,1.53.1h0c16.22-8.23,83.75-43.29,111.71-71.11,0,0,17.71-14.53,18.64-37.84C344,79.9,312.08,49.93,312.08,49.93s-59.07,73-102.35,169.33h0a1.67,1.67,0,0,0,.31,1.85"/></g></g></svg>